<svg version="1.1" id="Layer_1" xmlns="http://www.w3.org/2000/svg" xmlns:xlink="http://www.w3.org/1999/xlink" x="0px" y="0px"
	 width="100%" viewBox="0 0 500 187" enable-background="new 0 0 500 187" xml:space="preserve">
<path fill="#01BF64" opacity="1.000000" stroke="none" 
	d="
M319.000000,188.000000 
	C214.000015,188.000000 109.500015,187.978485 5.000163,188.095459 
	C1.576243,188.099289 0.895345,187.424850 0.903058,183.999847 
	C1.037423,124.333488 1.037415,64.666664 0.903078,5.000308 
	C0.895368,1.575613 1.576081,0.903033 4.999971,0.905298 
	C168.999863,1.013772 332.999847,1.013764 496.999756,0.905335 
	C500.423065,0.903072 501.104706,1.574773 501.096985,5.000038 
	C500.962585,64.666389 500.962555,124.333214 501.096863,183.999573 
	C501.104584,187.423996 500.425354,188.104782 497.000000,188.096985 
	C437.833557,187.962250 378.666748,188.000000 319.000000,188.000000 
z"/>
<path fill="#F4FCF9" opacity="1.000000" stroke="none" 
	d="
M94.794113,37.321175 
	C116.197441,30.216784 135.008286,34.671253 151.693512,49.039246 
	C153.441681,50.544617 154.732437,52.796204 157.206161,49.860706 
	C159.642593,46.969479 156.780106,46.032360 155.427353,44.801437 
	C131.516861,23.044167 95.148788,23.702318 71.637718,46.211128 
	C70.507896,47.292786 69.831856,49.143604 67.758156,48.975113 
	C74.190910,35.948650 91.468338,23.359255 108.323822,20.077751 
	C129.465210,15.961848 148.630234,20.262342 165.128601,34.630756 
	C169.112686,38.100487 169.123276,38.088329 173.780624,34.879417 
	C173.881912,36.419376 172.820892,36.989735 172.161804,37.703327 
	C162.450333,48.217907 152.747360,58.740570 142.978287,69.201485 
	C141.274109,71.026367 140.468918,72.394981 141.718857,75.178329 
	C143.783585,79.776009 142.745667,84.440712 139.131775,88.077698 
	C135.578506,91.653687 131.183578,93.138901 126.377335,90.928719 
	C124.064003,89.864914 122.798805,90.440193 121.268814,92.077034 
	C117.518623,96.089119 113.632500,99.973984 109.814400,103.922920 
	C109.218552,104.539185 108.568520,105.253876 107.700500,104.851456 
	C106.504387,104.296906 106.973953,103.189720 107.242035,102.282501 
	C108.799301,97.012405 110.536377,91.899757 115.506454,88.621353 
	C118.100044,86.910538 119.174789,84.808800 118.532227,81.123833 
	C117.088684,72.845284 124.977997,66.053154 133.484512,68.076195 
	C136.033325,68.682358 137.432724,68.276794 139.098801,66.635811 
	C142.180481,63.600559 145.244232,60.510342 148.612518,57.814156 
	C151.441238,55.549877 151.362244,54.045391 148.675522,51.689003 
	C133.248581,38.158859 115.658440,33.858631 95.379715,38.864471 
	C94.681595,38.509327 94.536301,38.082214 94.794113,37.321175 
z"/>
<path fill="#EFFBF5" opacity="1.000000" stroke="none" 
	d="
M297.248779,106.765106 
	C296.355316,109.185585 299.406006,112.842392 294.442688,113.100159 
	C291.070618,113.275276 289.687195,112.450073 289.922791,108.804337 
	C290.067291,106.567955 290.821075,102.106094 289.019653,102.350609 
	C285.989380,102.761894 287.614594,106.753571 287.687683,109.093040 
	C287.797638,112.613541 286.328003,113.209267 283.293274,113.105469 
	C280.948242,113.025261 280.087982,112.370285 280.130035,109.956062 
	C280.254395,102.812096 280.277069,95.662399 280.124756,88.519524 
	C280.063660,85.654724 281.479126,85.270088 283.807007,85.284569 
	C286.057251,85.298569 287.537445,85.506737 287.662781,88.416008 
	C287.757050,90.603127 286.085907,94.429207 289.047180,94.635681 
	C291.027771,94.773766 289.931702,90.699150 289.934662,88.581505 
	C289.938599,85.801865 291.115295,85.318840 293.533630,85.257065 
	C296.244568,85.187813 297.413055,85.881233 297.307617,88.848503 
	C297.101257,94.657761 297.248138,100.479576 297.248779,106.765106 
z"/>
<path fill="#EFFBF5" opacity="1.000000" stroke="none" 
	d="
M259.178223,113.027710 
	C256.352539,113.294258 255.049179,112.710190 255.117798,109.866966 
	C255.289825,102.739052 255.164261,95.604195 255.187454,88.472221 
	C255.191055,87.363136 254.990906,86.213493 256.370178,85.511322 
	C263.601868,81.829712 272.218292,86.962479 272.246124,95.023056 
	C272.258179,98.506104 272.271027,101.989433 272.242584,105.472298 
	C272.191315,111.746162 270.961792,112.955467 264.621887,113.024803 
	C262.963440,113.042946 261.304688,113.027817 259.178223,113.027710 
z"/>
<path fill="#F6FDF9" opacity="1.000000" stroke="none" 
	d="
M362.045410,113.006348 
	C359.450897,112.965988 359.869904,111.353554 359.864258,110.119057 
	C359.831543,102.970413 359.943939,95.819580 359.797699,88.673782 
	C359.743225,86.011276 360.718231,85.282433 363.270294,85.272690 
	C365.943909,85.262489 367.106781,85.863609 367.114044,88.850906 
	C367.118958,90.871338 365.582886,94.698624 368.247742,94.702888 
	C370.960968,94.707222 369.486053,90.867332 369.489563,88.826805 
	C369.494781,85.795319 370.779907,85.250893 373.408539,85.283020 
	C375.892273,85.313385 376.985870,85.963463 376.924438,88.681328 
	C376.766663,95.660294 376.716827,102.650230 376.942657,109.625465 
	C377.043793,112.749168 375.659027,113.108955 373.095001,113.081787 
	C370.723450,113.056656 369.589294,112.706406 369.473358,109.865990 
	C369.365601,107.226418 371.389343,103.008881 367.883667,102.361000 
	C366.354309,102.078369 367.009338,107.259659 367.101074,109.876419 
	C367.241272,113.874924 364.677673,112.924919 362.045410,113.006348 
z"/>
<path fill="#EFFBF5" opacity="1.000000" stroke="none" 
	d="
M339.782715,85.331909 
	C344.744965,85.769150 341.126190,90.007179 343.326874,91.568169 
	C344.575073,90.556862 344.577698,88.810944 345.085175,87.307571 
	C346.102112,84.295113 348.670624,85.176949 350.552551,85.480042 
	C353.532257,85.959946 351.804688,88.167130 351.164062,89.272743 
	C346.428284,97.446312 350.946136,104.935692 352.921906,112.470741 
	C346.832397,114.733910 344.079254,112.128204 343.690613,106.177620 
	C342.163849,107.309944 342.515625,108.569397 342.629303,109.579453 
	C342.970642,112.612053 341.477753,113.074394 338.841034,113.117180 
	C336.163452,113.160629 335.410095,112.257820 335.459015,109.696167 
	C335.592163,102.725075 335.627167,95.746635 335.448456,88.777580 
	C335.369690,85.706429 336.798370,85.030563 339.782715,85.331909 
z"/>
<path fill="#F4FCF9" opacity="1.000000" stroke="none" 
	d="
M214.876617,98.314224 
	C223.234985,97.951584 223.235901,97.951584 223.233521,106.134598 
	C223.233032,107.796722 223.217651,109.458855 223.218796,111.120979 
	C223.219574,112.270844 222.771866,113.243828 221.523010,112.957596 
	C218.425369,112.247612 215.525864,113.234451 212.525742,113.549789 
	C209.859329,113.830055 207.565384,112.284668 206.996124,109.480354 
	C205.630692,102.753906 205.301987,95.864777 207.110855,89.264938 
	C208.446747,84.390846 213.115845,84.698616 217.150146,85.078293 
	C221.107697,85.450745 222.934753,87.960091 222.989273,91.837204 
	C223.016495,93.772812 223.587280,95.989159 220.271820,95.811432 
	C217.907501,95.684685 215.372513,96.195877 215.873398,92.438828 
	C215.980209,91.637794 215.918854,90.773399 214.859634,90.010071 
	C212.430237,92.012054 213.986694,94.785500 213.656555,97.558624 
	C213.937683,98.747383 213.961182,99.517120 214.022888,100.281967 
	C214.047882,99.636444 214.204453,99.033791 214.876617,98.314224 
z"/>
<path fill="#F6FDF9" opacity="1.000000" stroke="none" 
	d="
M401.873566,99.021591 
	C401.870483,101.323387 401.930969,103.154900 401.852631,104.980453 
	C401.595245,110.975784 398.912018,113.673515 393.276581,113.680382 
	C387.631683,113.687263 385.003998,111.028236 384.876770,104.971443 
	C384.789490,100.817520 384.753601,96.654167 384.931366,92.505165 
	C385.152802,87.336571 387.628143,85.081253 392.827087,84.944000 
	C398.398468,84.796906 401.207184,86.964630 401.757568,92.070442 
	C401.988098,94.209129 401.846161,96.387985 401.873566,99.021591 
z"/>
<path fill="#F4FCF9" opacity="1.000000" stroke="none" 
	d="
M245.118744,90.816925 
	C246.049530,97.314873 246.987610,103.374901 247.765808,109.455383 
	C247.941574,110.828712 249.022446,113.238800 246.068939,112.922066 
	C244.229202,112.724777 241.040802,114.839691 240.867828,110.614655 
	C240.828568,109.656075 240.871735,108.421860 239.557312,108.305000 
	C237.674789,108.137657 238.126770,109.736870 238.017059,110.763535 
	C237.583237,114.823425 234.507660,112.688835 232.641830,112.916458 
	C230.051437,113.232491 230.923248,111.019089 231.064804,109.762123 
	C231.806503,103.175728 233.148834,96.618889 233.359497,90.022308 
	C233.541321,84.328064 237.110031,85.629303 240.413361,85.279877 
	C244.572525,84.839928 245.091309,87.255928 245.118744,90.816925 
z"/>
<path fill="#E0F7EC" opacity="1.000000" stroke="none" 
	d="
M156.757538,124.089020 
	C167.822922,105.917259 169.829575,87.426819 161.146194,68.139435 
	C160.196091,66.029129 159.037735,63.987495 157.758286,62.058388 
	C156.713898,60.483669 156.122879,59.128960 157.933090,57.795689 
	C160.383682,55.990753 160.736115,58.606388 161.474304,59.706245 
	C174.296356,78.810310 173.040649,105.658531 158.256577,124.792343 
	C157.417496,125.147591 156.967361,124.972061 156.757538,124.089020 
z"/>
<path fill="#F6FDF9" opacity="1.000000" stroke="none" 
	d="
M171.610275,66.152184 
	C170.220566,63.560013 169.049591,61.185181 167.728989,58.896694 
	C163.453690,51.487934 163.990494,49.300541 170.851257,43.784435 
	C172.775574,42.237289 173.390823,43.377781 174.309296,44.574383 
	C177.967697,49.340553 180.776337,54.589401 183.056152,60.129185 
	C183.651810,61.576588 183.968399,62.423203 181.729721,63.330563 
	C179.374573,64.285126 177.062210,65.696724 174.348175,66.915421 
	C173.201004,66.975311 172.399246,67.014015 171.610275,66.152184 
z"/>
<path fill="#65D9A1" opacity="1.000000" stroke="none" 
	d="
M49.782066,96.173691 
	C48.677334,93.519913 46.695236,93.770767 44.891640,93.754265 
	C40.230122,93.711624 35.568035,93.734955 30.906340,93.706009 
	C24.773521,93.667931 24.684706,93.548889 26.198061,87.417328 
	C26.436357,86.451843 26.803505,85.518150 27.286781,84.270859 
	C29.146614,82.185043 31.053345,81.444809 33.615841,81.933586 
	C39.009285,82.962341 44.846184,81.705612 50.018852,85.512688 
	C50.448132,86.496780 50.475685,87.099800 50.189003,88.141068 
	C49.580616,92.882317 51.485317,94.126968 55.753601,93.991188 
	C61.682137,93.802589 67.673615,93.184807 73.862793,94.715103 
	C72.447281,96.960075 70.198235,97.303490 67.841766,97.306160 
	C61.927769,97.312866 56.018909,97.190025 49.782066,96.173691 
z"/>
<path fill="#EFFBF5" opacity="1.000000" stroke="none" 
	d="
M415.083252,85.332443 
	C418.457184,84.914543 419.703491,85.988373 419.590637,89.161034 
	C419.377625,95.150742 419.640076,101.156334 419.477875,107.149178 
	C419.345490,112.040337 415.371216,114.652176 410.801025,112.942291 
	C408.366302,112.031372 408.813629,109.216957 409.971588,108.625160 
	C412.914337,107.121216 412.077515,104.794243 412.125427,102.653870 
	C412.229797,97.991745 412.187164,93.325455 412.145844,88.661385 
	C412.129791,86.849007 412.222931,85.239388 415.083252,85.332443 
z"/>
<path fill="#F4FCF9" opacity="1.000000" stroke="none" 
	d="
M312.342773,110.465706 
	C311.706970,114.770813 308.731903,112.718483 306.845551,112.897545 
	C304.476776,113.122414 305.141571,110.950432 305.130554,109.627136 
	C305.072662,102.676193 305.244232,95.720352 305.039398,88.774963 
	C304.947906,85.672470 306.389679,85.307472 308.928894,85.278671 
	C311.465729,85.249901 312.451752,86.013145 312.398590,88.665062 
	C312.255890,95.779144 312.349792,102.897964 312.342773,110.465706 
z"/>
<path fill="#9CE7C3" opacity="1.000000" stroke="none" 
	d="
M104.493492,73.824814 
	C104.047638,77.137718 103.219101,80.269661 102.214020,83.712135 
	C98.379219,84.779602 94.866379,83.519371 91.295670,83.173286 
	C87.062119,82.762970 82.860588,82.064957 78.298119,82.274033 
	C78.614815,79.551979 79.222328,77.103470 80.032295,74.352097 
	C82.726013,71.477791 85.934372,71.846039 88.985741,72.149124 
	C94.026802,72.649841 99.078491,73.053230 104.493492,73.824814 
z"/>
<path fill="#8AE2B8" opacity="1.000000" stroke="none" 
	d="
M54.598061,72.828369 
	C53.924992,76.757248 52.896469,80.512283 51.640709,84.569626 
	C46.196709,82.725708 40.608326,82.631851 35.127232,82.068268 
	C32.963860,81.845833 30.943855,81.432526 28.741070,80.241570 
	C28.957903,77.835823 29.421921,75.743721 30.080881,73.354889 
	C32.975040,71.029694 36.082268,71.920074 38.928993,72.197411 
	C44.039295,72.695282 49.109123,73.361679 54.598061,72.828369 
z"/>
<path fill="#DDF7EA" opacity="1.000000" stroke="none" 
	d="
M107.427505,154.154297 
	C108.992104,151.514801 110.184280,152.734802 111.314507,154.170578 
	C112.539154,155.726303 113.723114,157.314041 114.911629,158.870529 
	C115.325340,158.621353 115.692841,158.531998 115.801224,158.313904 
	C116.684303,156.536743 114.536217,152.856857 117.296715,152.956802 
	C120.274773,153.064606 118.795609,156.750183 118.739555,158.745224 
	C118.682175,160.787491 120.448387,163.914719 117.495895,164.819061 
	C114.986160,165.587784 114.426239,162.317383 112.973656,160.871964 
	C112.412193,160.313263 111.956947,159.647812 111.466362,159.046997 
	C110.949791,159.396881 110.601151,159.506439 110.478271,159.736572 
	C109.604767,161.372437 111.444855,164.756271 109.021095,164.739990 
	C105.776314,164.718185 107.814674,161.356369 107.437782,159.515305 
	C107.110657,157.917328 107.381805,156.196899 107.427505,154.154297 
z"/>
<path fill="#DDF7EA" opacity="1.000000" stroke="none" 
	d="
M264.153381,163.516403 
	C264.108307,160.584167 264.068878,158.094223 264.113068,155.605743 
	C264.132324,154.519028 263.685638,153.119949 265.269897,152.701950 
	C266.610168,152.348312 267.391388,153.242233 268.121735,154.222244 
	C269.189117,155.654556 270.330383,157.031830 271.406982,158.390671 
	C271.927612,158.107712 272.276215,158.034607 272.417114,157.823105 
	C273.454803,156.265457 271.514526,152.785461 274.029449,152.913651 
	C276.978668,153.063965 275.424103,156.413376 275.469147,158.288223 
	C275.521484,160.466553 276.805664,163.755051 274.613403,164.684753 
	C271.614807,165.956436 271.129028,161.970291 269.396332,160.444748 
	C268.812836,159.931015 268.386383,159.238968 267.032135,157.579437 
	C267.032135,160.255081 267.199799,161.821136 266.993744,163.336365 
	C266.666199,165.744995 265.533539,165.565018 264.153381,163.516403 
z"/>
<path fill="#DDF7EA" opacity="1.000000" stroke="none" 
	d="
M322.944000,153.374695 
	C323.685638,152.665909 324.368225,152.353714 324.866913,152.994431 
	C325.239075,153.472641 325.569031,154.184143 325.519318,154.757202 
	C325.226440,158.132477 327.243652,163.152817 324.526093,164.506744 
	C321.088287,166.219528 320.602478,160.164474 317.724060,158.793243 
	C317.513245,158.993347 317.229980,159.146240 317.126251,159.379120 
	C316.331482,161.163452 318.558533,164.686249 315.653839,164.720154 
	C312.594788,164.755875 314.216187,161.251266 314.227631,159.442566 
	C314.241760,157.203049 312.599243,153.817139 315.493256,152.864899 
	C318.082397,152.013016 318.669006,155.673691 320.306549,157.161804 
	C320.774689,157.587250 321.239929,158.015915 321.742523,158.476059 
	C323.393158,157.009033 322.384491,155.217148 322.944000,153.374695 
z"/>
<path fill="#E6F9F0" opacity="1.000000" stroke="none" 
	d="
M132.126068,154.866577 
	C133.449310,150.822006 135.048569,152.690048 136.181778,154.441284 
	C138.040268,157.313385 139.641769,158.290176 141.625885,154.618805 
	C142.262497,153.440796 143.144760,152.219681 144.747803,152.781143 
	C146.487076,153.390335 145.745712,155.026901 145.816055,156.246078 
	C145.921234,158.069092 145.917877,159.906982 145.815063,161.730331 
	C145.747650,162.925919 146.430069,164.770279 144.461731,164.912949 
	C142.251053,165.073196 143.118088,163.122620 142.984344,161.988129 
	C142.856613,160.904709 142.956787,159.794418 142.956787,157.121552 
	C140.230713,161.846802 137.866104,162.029266 135.688293,158.284119 
	C135.323120,159.005920 135.179245,159.256607 135.065613,159.520355 
	C134.310822,161.272324 136.650131,164.806473 133.510483,164.711853 
	C130.737366,164.628281 132.549454,161.166779 132.167084,159.249115 
	C131.911972,157.969864 132.119873,156.598267 132.126068,154.866577 
z"/>
<path fill="#4FD394" opacity="1.000000" stroke="none" 
	d="
M49.291122,96.211082 
	C57.291664,94.117676 65.258354,95.355797 73.652550,95.053398 
	C73.484695,97.461784 72.836433,99.863754 72.081512,102.620773 
	C65.311569,102.682724 58.789516,101.133034 52.132843,100.740509 
	C50.938091,100.670067 50.328434,99.393402 49.185242,98.329269 
	C48.969044,97.548271 49.062202,97.055672 49.291122,96.211082 
z"/>
<path fill="#65D9A1" opacity="1.000000" stroke="none" 
	d="
M99.858170,91.582336 
	C99.680161,93.416733 98.604767,93.775429 97.368370,93.777206 
	C90.877335,93.786537 84.380936,93.923157 77.897064,93.702263 
	C73.548317,93.554115 75.629219,90.782005 76.445679,88.453842 
	C78.153900,86.786018 79.783287,85.990784 81.987419,86.293678 
	C86.385246,86.898018 90.797546,87.410980 95.206047,87.942398 
	C97.331802,88.198647 99.009125,88.938248 99.858170,91.582336 
z"/>
<path fill="#9CE7C3" opacity="1.000000" stroke="none" 
	d="
M55.042942,72.772644 
	C52.451794,76.243507 49.300598,76.082199 45.642048,75.301102 
	C40.842461,74.276405 35.908676,73.880280 30.654217,73.135986 
	C30.334234,72.599915 30.392645,72.141685 30.608822,71.372818 
	C31.374569,69.387276 32.735313,69.033669 34.308586,69.023735 
	C40.044563,68.987518 45.780476,68.983215 51.516422,69.026367 
	C53.091553,69.038223 54.460743,69.378418 55.056946,71.596565 
	C55.157413,72.050980 55.132370,72.543083 55.042942,72.772644 
z"/>
<path fill="#AFECCE" opacity="1.000000" stroke="none" 
	d="
M104.978981,73.773262 
	C100.102943,77.917381 94.952621,74.528404 90.013229,74.572136 
	C87.104050,74.597893 84.098213,73.999786 80.671638,74.035858 
	C80.284348,73.592552 80.333946,73.135872 80.540611,72.370193 
	C81.577988,69.736343 83.317413,68.950531 85.721909,68.983833 
	C90.809280,69.054306 95.898636,69.009384 100.987122,69.003639 
	C103.172127,69.001183 104.955681,69.418541 105.059708,72.575104 
	C105.095619,73.202057 105.088707,73.371399 104.978981,73.773262 
z"/>
<path fill="#E6F9F0" opacity="1.000000" stroke="none" 
	d="
M447.802124,161.256775 
	C448.527283,162.637650 450.518372,163.695663 449.509033,164.658813 
	C448.175049,165.931778 446.885193,164.446106 445.929321,163.206863 
	C445.144470,162.189438 444.249725,161.256760 443.046753,159.877136 
	C442.856506,161.417358 442.714752,162.372025 442.626953,163.331650 
	C442.542877,164.250519 442.212189,164.953415 441.183350,164.976990 
	C439.687408,165.011276 439.805908,163.883423 439.793732,162.901855 
	C439.773163,161.241165 439.591217,159.552521 439.827667,157.926605 
	C440.087524,156.139893 438.544434,153.477631 441.118011,152.752853 
	C443.205750,152.164902 445.833038,151.888123 447.697815,153.823868 
	C449.630035,155.829590 448.716858,157.736710 447.283661,159.604492 
	C447.102417,159.840668 447.473053,160.500290 447.802124,161.256775 
z"/>
<path fill="#7EDFB1" opacity="1.000000" stroke="none" 
	d="
M100.161133,91.696884 
	C92.879326,88.740059 85.020760,89.568062 77.101120,88.157196 
	C76.733780,87.378395 76.819977,86.570496 77.017097,85.372345 
	C78.849533,82.941025 80.999756,82.021797 83.695663,82.319077 
	C88.140350,82.809204 92.571671,83.396820 97.005257,83.973618 
	C98.997063,84.232750 100.541580,84.873711 100.920914,87.575241 
	C100.787720,89.136269 100.541199,90.256569 100.161133,91.696884 
z"/>
<path fill="#3FCF8A" opacity="1.000000" stroke="none" 
	d="
M48.775269,98.386917 
	C54.643387,98.708290 60.405254,99.431625 66.181358,100.013680 
	C68.284798,100.225639 70.039917,100.922066 71.709084,102.735054 
	C71.695595,104.081718 71.416328,105.187614 71.048767,106.624855 
	C63.423542,105.742699 55.786224,105.228867 48.047752,103.352142 
	C48.092552,101.577965 48.383602,100.155457 48.775269,98.386917 
z"/>
<path fill="#EBFAF3" opacity="1.000000" stroke="none" 
	d="
M91.168228,164.973511 
	C90.062874,160.487823 93.023834,157.140060 94.605644,153.446838 
	C95.304611,151.814880 97.477028,152.159851 98.392738,154.221924 
	C99.128853,155.879578 99.893227,157.532028 100.496483,159.239304 
	C101.131027,161.035110 103.219353,163.325836 102.113655,164.512253 
	C100.248314,166.513733 99.500389,163.025482 97.938286,162.542236 
	C95.171234,161.686264 93.400871,163.402557 91.168228,164.973511 
z"/>
<path fill="#EBFAF3" opacity="1.000000" stroke="none" 
	d="
M242.196503,154.936447 
	C243.428070,157.860901 244.525284,160.449493 245.624512,163.037231 
	C246.074081,164.095642 245.562149,165.648468 244.722412,164.864807 
	C240.956055,161.349945 237.492020,161.765900 233.814392,166.086227 
	C233.652695,165.586151 233.490982,165.086075 233.329285,164.585983 
	C234.713684,161.180054 235.921387,157.687500 237.535614,154.394211 
	C238.951920,151.504745 240.671890,151.843338 242.196503,154.936447 
z"/>
<path fill="#E6F9F0" opacity="1.000000" stroke="none" 
	d="
M192.638138,160.265854 
	C190.932343,157.888672 192.597244,158.015152 193.939209,157.968124 
	C195.103607,157.927292 196.273361,157.825974 196.439789,159.561676 
	C196.672150,161.984940 196.002075,163.897430 193.620132,164.767090 
	C191.060715,165.701599 188.666473,165.298004 186.849457,163.113937 
	C184.971497,160.856628 184.581345,158.327011 186.045044,155.710403 
	C187.384628,153.315674 189.494675,152.102768 192.249512,152.522949 
	C193.481064,152.710815 195.295471,152.966782 195.050873,154.705093 
	C194.808243,156.429260 193.382721,155.623672 192.281036,155.347198 
	C190.316025,154.854050 189.073059,155.976837 188.313751,157.564377 
	C187.692963,158.862274 188.055496,160.186935 189.045898,161.245041 
	C190.062546,162.331207 191.313858,162.566727 192.671265,161.964859 
	C193.405182,161.639435 193.537994,161.094955 192.638138,160.265854 
z"/>
<path fill="#EBFAF3" opacity="1.000000" stroke="none" 
	d="
M58.968437,164.612762 
	C57.764000,164.751083 55.909569,165.727249 56.765755,163.452667 
	C57.928204,160.364441 59.141197,157.283112 60.559620,154.307068 
	C61.804474,151.695236 63.523022,151.858063 64.890297,154.225632 
	C65.791100,155.785446 66.422287,157.524506 66.997131,159.242569 
	C67.598404,161.039612 69.753708,163.227081 68.535194,164.525742 
	C66.630653,166.555542 66.032356,162.783600 64.362595,162.561523 
	C62.375084,162.297241 60.344692,161.978363 58.968437,164.612762 
z"/>
<path fill="#EBFAF3" opacity="1.000000" stroke="none" 
	d="
M387.862213,161.896423 
	C388.959045,159.242416 389.973999,156.981827 390.851562,154.669128 
	C391.303497,153.478256 391.860168,152.651108 393.263977,152.604141 
	C394.776001,152.553543 395.189453,153.672440 395.649506,154.718796 
	C396.446228,156.530884 397.258392,158.342911 397.916412,160.207077 
	C398.434662,161.675201 400.167755,163.573380 399.098755,164.570068 
	C397.313477,166.234604 396.639587,163.217712 395.297546,162.773895 
	C393.266113,162.102097 391.105713,161.830856 389.723175,164.326920 
	C389.167542,165.330048 387.875641,165.303116 387.203918,164.501083 
	C386.908936,164.148865 387.522400,163.035828 387.862213,161.896423 
z"/>
<path fill="#EFFBF5" opacity="1.000000" stroke="none" 
	d="
M424.204651,159.156525 
	C425.873810,156.840393 425.149689,152.746857 428.515350,152.792038 
	C431.805206,152.836212 431.210236,156.825745 432.611481,158.893814 
	C433.247589,159.832611 433.638794,160.985184 433.927155,162.096313 
	C434.148926,162.950714 435.367157,163.910416 434.370514,164.677170 
	C433.296814,165.503174 432.455627,164.741013 431.521423,163.764923 
	C429.505524,161.658676 427.184692,161.508026 425.262390,164.001266 
	C424.514557,164.971222 423.761475,165.138611 422.203888,164.670883 
	C422.822693,162.955292 423.444946,161.230179 424.204651,159.156525 
z"/>
<path fill="#DDF7EA" opacity="1.000000" stroke="none" 
	d="
M177.600769,155.118515 
	C174.633392,156.234299 175.297409,156.799515 177.531113,157.067322 
	C178.511139,157.184799 179.712753,157.122299 179.736023,158.467377 
	C179.759537,159.826599 178.554199,159.790527 177.575790,159.915253 
	C176.799973,160.014160 175.728287,159.863831 175.615631,160.920227 
	C175.462570,162.355377 176.725555,162.297333 177.660034,162.412933 
	C178.794983,162.553345 180.335617,162.400848 180.153915,164.032242 
	C179.966675,165.713501 178.336929,164.874207 177.323380,165.054306 
	C173.485855,165.736160 171.832611,164.248764 172.384995,160.265839 
	C172.633575,158.473480 172.469513,156.619995 172.445572,154.794846 
	C172.422394,153.029312 173.459930,152.382904 174.984344,152.564316 
	C176.694290,152.767807 178.970551,151.506821 179.997513,153.485580 
	C180.971252,155.361755 178.986038,154.909225 177.600769,155.118515 
z"/>
<path fill="#7EDFB1" opacity="1.000000" stroke="none" 
	d="
M28.396889,80.218277 
	C35.154377,79.078461 41.589859,80.894379 48.113338,81.631348 
	C49.461098,81.783607 50.511494,82.708313 51.243187,84.453438 
	C51.501251,85.143143 51.477375,85.404259 51.219933,85.819778 
	C50.930508,86.221451 50.762989,86.458618 50.334953,86.346741 
	C42.813656,85.101387 35.624268,83.506523 27.853884,83.869476 
	C27.572474,83.508644 27.682457,83.045319 27.952511,82.262238 
	C28.112579,81.942467 28.393560,81.572906 28.340961,81.346825 
	C28.292204,80.916702 28.296049,80.712662 28.396889,80.218277 
z"/>
<path fill="#E6F9F0" opacity="1.000000" stroke="none" 
	d="
M306.580994,153.347565 
	C309.702881,155.880768 310.336426,158.767822 308.722260,161.972137 
	C307.488678,164.420959 305.309845,165.506516 302.539154,165.134033 
	C299.725311,164.755737 298.152802,162.930313 297.453918,160.349564 
	C296.066437,155.226105 300.386139,151.723984 306.580994,153.347565 
z"/>
<path fill="#E6F9F0" opacity="1.000000" stroke="none" 
	d="
M280.473206,160.457916 
	C279.953094,156.764572 281.123108,154.235138 284.272797,152.885483 
	C286.882568,151.767166 289.191772,152.552246 290.975281,154.590698 
	C292.760986,156.631653 293.059143,159.068741 291.948944,161.545898 
	C291.011230,163.638245 289.395752,164.989777 287.015106,165.161835 
	C283.757111,165.397339 281.693146,163.817078 280.473206,160.457916 
z"/>
<path fill="#E6F9F0" opacity="1.000000" stroke="none" 
	d="
M76.916306,155.393494 
	C79.169441,157.268356 81.502861,158.985962 82.165672,154.473282 
	C82.342094,153.272079 82.838562,152.616119 84.033005,152.732285 
	C85.217377,152.847473 85.026306,153.882645 85.036842,154.647827 
	C85.075691,157.469513 85.070145,160.292267 85.039322,163.114151 
	C85.030701,163.903152 85.089394,164.852081 83.922249,164.934494 
	C82.625488,165.026077 82.189407,164.235153 82.194946,163.085464 
	C82.203163,161.381195 82.340286,159.875397 79.744392,159.814087 
	C77.063828,159.750793 76.720009,161.054550 76.857277,163.154190 
	C76.933945,164.327026 76.377861,165.053726 75.096970,164.931168 
	C73.933426,164.819839 74.008087,163.874023 73.999428,163.087448 
	C73.968369,160.265549 73.968567,157.442947 73.998138,154.621017 
	C74.006386,153.834167 73.889687,152.845947 75.059143,152.736877 
	C76.722000,152.581802 76.912430,153.720398 76.916306,155.393494 
z"/>
<path fill="#8AE2B8" opacity="1.000000" stroke="none" 
	d="
M101.189278,87.704697 
	C93.719086,84.110603 85.920616,83.693993 77.518768,84.897217 
	C77.226753,84.102219 77.325470,83.222359 77.715744,82.171494 
	C80.768524,79.743149 83.850761,80.374435 86.959717,80.947830 
	C91.769524,81.834938 96.878799,81.103523 101.711418,83.825943 
	C101.806419,85.146255 101.575363,86.269836 101.189278,87.704697 
z"/>
<path fill="#E0F7EC" opacity="1.000000" stroke="none" 
	d="
M221.022919,159.225037 
	C218.815735,155.180222 220.287338,152.235565 224.100769,152.399048 
	C225.573410,152.462189 227.695541,152.846710 227.656723,154.406509 
	C227.610901,156.247528 225.819717,155.498917 224.555206,155.159424 
	C223.735458,154.939362 222.733063,155.084946 222.702545,156.157028 
	C222.666046,157.439743 223.985855,157.502502 224.815918,157.744675 
	C227.216217,158.444977 229.551559,159.344696 228.460129,162.398026 
	C227.450348,165.222916 224.829391,165.540604 222.222275,165.002655 
	C220.971146,164.744476 219.339127,164.088928 219.785263,162.516785 
	C220.191376,161.085648 221.589859,161.574387 222.676697,162.180130 
	C223.456085,162.614456 224.223785,162.528427 225.015533,162.058151 
	C224.791824,159.571762 222.408035,160.436417 221.022919,159.225037 
z"/>
<path fill="#EFFBF5" opacity="1.000000" stroke="none" 
	d="
M339.001984,162.628815 
	C338.997955,160.356064 338.860321,158.518509 339.042664,156.713303 
	C339.177460,155.378769 338.063232,153.270950 339.994507,152.846207 
	C342.834564,152.221619 341.269073,155.253708 342.347260,156.303589 
	C344.760223,155.764847 345.489594,151.866165 348.975494,152.830750 
	C348.743652,155.585403 344.576538,156.248718 345.302368,158.629333 
	C345.965881,160.805511 348.224487,162.495377 349.954681,164.613251 
	C345.924957,166.032974 345.421906,161.786636 342.966614,160.892151 
	C340.604523,161.174576 343.296722,165.226730 340.103119,164.925552 
	C338.948700,164.816696 339.089233,163.862961 339.001984,162.628815 
z"/>
<path fill="#DDF7EA" opacity="1.000000" stroke="none" 
	d="
M379.242065,164.940552 
	C374.252686,165.032532 374.231537,165.027130 375.320587,160.759033 
	C375.612854,159.613693 374.584564,159.474075 374.094788,158.958084 
	C372.587738,157.370361 372.445496,155.676041 373.853088,154.069672 
	C375.455811,152.240646 377.514343,151.915970 379.738068,152.921860 
	C380.478363,153.256714 381.374237,153.663010 381.061340,154.659149 
	C380.797333,155.499542 380.089935,155.919586 379.098480,155.525772 
	C378.046234,155.107819 376.587311,154.379150 376.257751,156.033173 
	C375.960876,157.523117 377.734619,157.442932 378.713989,157.865448 
	C383.151978,159.780029 383.353790,161.329071 379.242065,164.940552 
z"/>
<path fill="#E6F9F0" opacity="1.000000" stroke="none" 
	d="
M416.635406,152.939758 
	C416.297241,156.652313 414.408997,159.633652 413.209564,162.877289 
	C412.783447,164.029663 412.341644,164.962555 410.869415,165.048248 
	C409.365601,165.135773 408.838318,164.191437 408.374878,163.091904 
	C407.214142,160.338348 406.054657,157.583939 404.936401,154.813019 
	C404.649200,154.101440 404.108551,153.218613 405.247864,152.738739 
	C406.134552,152.365250 406.992737,152.719421 407.374054,153.518188 
	C408.443909,155.759003 409.381470,158.062988 410.378357,160.358597 
	C413.764008,158.788589 411.759644,153.176392 416.635406,152.939758 
z"/>
<path fill="#27C97B" opacity="1.000000" stroke="none" 
	d="
M69.218903,110.582733 
	C69.000183,111.744469 68.998337,112.482910 68.985458,113.590424 
	C61.594143,111.816872 53.632027,112.761063 46.205727,109.355179 
	C46.169449,108.169937 46.350643,107.338310 46.716400,106.243347 
	C48.126163,104.633545 49.745876,104.341301 51.418468,104.495651 
	C56.469284,104.961739 61.519821,105.418037 66.505554,106.446953 
	C68.665558,106.892708 69.715576,107.928185 69.218903,110.582733 
z"/>
<path fill="#10C36D" opacity="1.000000" stroke="none" 
	d="
M67.727173,114.702881 
	C67.879677,117.063530 66.715088,117.970390 64.751106,117.961777 
	C58.928631,117.936249 53.208069,117.036415 47.506168,115.960075 
	C45.700478,115.619225 45.063049,114.445442 45.029884,112.373932 
	C45.514320,111.539986 46.059532,110.837929 46.643085,110.916069 
	C53.604916,111.848251 60.800945,111.408791 67.727173,114.702881 
z"/>
<path fill="#EBFAF3" opacity="1.000000" stroke="none" 
	d="
M257.449707,159.836288 
	C254.943237,159.804733 253.471298,160.290802 253.843155,162.915314 
	C253.991913,163.965286 253.663879,164.942551 252.333054,164.951279 
	C250.827225,164.961166 251.028488,163.761566 251.007660,162.828430 
	C250.963379,160.843170 250.819839,158.836929 251.042877,156.876343 
	C251.216599,155.349243 249.780350,152.821716 252.840759,152.651962 
	C255.067749,152.528442 257.619110,151.886856 259.231537,154.237579 
	C260.790833,156.510834 259.843353,158.279388 257.449707,159.836288 
z"/>
<path fill="#1CC674" opacity="1.000000" stroke="none" 
	d="
M68.211227,114.874481 
	C60.633739,114.042076 53.235840,113.051460 45.430016,112.022079 
	C45.216427,111.160446 45.410767,110.337585 45.796684,109.258133 
	C52.057331,109.711365 58.126343,110.421730 64.195526,111.130600 
	C65.935707,111.333855 67.282280,112.244354 68.710541,113.722458 
	C68.816002,114.239594 68.621468,114.491859 68.211227,114.874481 
z"/>
<path fill="#34CD83" opacity="1.000000" stroke="none" 
	d="
M69.222534,110.772308 
	C68.904228,109.003983 67.763992,108.221268 65.852242,107.970818 
	C59.853271,107.184952 53.902851,105.984406 47.359085,105.984879 
	C47.089741,105.162918 47.278519,104.345818 47.634399,103.264595 
	C55.466667,103.351738 63.283806,102.717705 70.690910,106.722862 
	C70.454659,108.150330 69.948853,109.344452 69.222534,110.772308 
z"/>
<path fill="#65D9A1" opacity="1.000000" stroke="none" 
	d="
M183.766266,102.574463 
	C183.867508,105.423996 182.750061,107.507744 181.437469,109.870605 
	C178.589890,112.057014 176.081772,111.639160 173.401871,109.351196 
	C173.830612,106.228958 174.510742,103.492470 175.394348,100.484589 
	C179.872589,97.596970 181.207184,97.924034 183.766266,102.574463 
z"/>
<path fill="#DDF7EA" opacity="1.000000" stroke="none" 
	d="
M175.079880,75.436356 
	C174.486542,74.616402 174.301559,74.087563 174.122620,73.274750 
	C174.345627,72.713791 174.548965,72.427116 174.786499,71.872429 
	C175.831528,71.048485 176.798721,70.415977 177.834930,69.930870 
	C185.713455,66.242439 185.717667,66.251427 186.681335,75.499435 
	C182.864731,78.830147 179.171982,77.515450 175.079880,75.436356 
z"/>
<path fill="#7EDFB1" opacity="1.000000" stroke="none" 
	d="
M184.036530,102.612625 
	C181.913086,100.841469 179.198013,100.430946 176.011780,100.193642 
	C175.393402,93.578316 178.407516,91.731865 184.543350,94.547882 
	C186.216599,95.315819 186.227905,96.381401 185.810303,97.701134 
	C185.323120,99.240784 184.671097,100.728271 184.036530,102.612625 
z"/>
<path fill="#E6F9F0" opacity="1.000000" stroke="none" 
	d="
M44.921230,162.170959 
	C45.447556,158.209152 42.173691,156.323395 41.228134,153.417297 
	C41.866997,152.110336 43.279839,152.353790 43.683769,152.943390 
	C45.449734,155.521057 46.913738,156.140579 48.739464,153.017807 
	C49.114506,152.376328 50.313198,152.288071 50.977913,152.922028 
	C51.810406,153.715988 50.974941,154.450012 50.516533,155.026443 
	C48.605896,157.429031 47.379559,160.006470 47.766048,163.196518 
	C47.905792,164.349960 47.238178,165.122406 45.996883,164.933716 
	C44.565151,164.716095 45.068382,163.470200 44.921230,162.170959 
z"/>
<path fill="#9CE7C3" opacity="1.000000" stroke="none" 
	d="
M105.273132,72.753029 
	C103.887222,70.844643 102.157928,69.601456 99.528923,69.924156 
	C93.472130,70.667580 87.092064,68.203995 81.007965,71.911118 
	C80.480103,69.022728 82.032326,68.072708 84.893196,68.128220 
	C90.803009,68.242889 96.721786,68.289070 102.627373,68.086441 
	C106.421471,67.956268 106.937004,69.449677 105.273132,72.753029 
z"/>
<path fill="#C5F1DC" opacity="1.000000" stroke="none" 
	d="
M174.637421,75.571594 
	C178.390747,74.852364 182.092407,74.850243 186.186646,75.876030 
	C186.764526,77.378761 186.891647,78.818222 186.954575,80.619873 
	C184.458847,83.726341 181.013687,81.628929 177.893646,82.812958 
	C177.048294,82.820862 176.595886,82.683098 175.969299,82.142212 
	C175.377731,79.894897 174.990509,77.946419 174.637421,75.571594 
z"/>
<path fill="#AFECCE" opacity="1.000000" stroke="none" 
	d="
M176.712067,82.450661 
	C179.597168,78.343231 182.964142,80.382156 186.503403,80.900543 
	C186.930603,82.698944 186.970810,84.415810 186.932709,86.555923 
	C184.091156,89.832253 180.450287,87.021698 177.083221,88.419647 
	C176.506256,87.433136 176.309891,86.461281 176.237473,85.131195 
	C176.079559,84.125366 176.100296,83.487862 176.712067,82.450661 
z"/>
<path fill="#1CC674" opacity="1.000000" stroke="none" 
	d="
M166.284821,122.419838 
	C168.746735,118.843483 171.242645,121.204582 172.756378,122.546631 
	C174.520584,124.110764 171.908508,125.209503 171.054565,126.428703 
	C170.680359,126.962967 170.101562,127.348984 169.658020,127.840530 
	C168.124161,129.540375 166.259491,130.200867 164.399582,128.698410 
	C162.474457,127.143288 164.410599,125.777107 165.073517,124.410126 
	C165.361252,123.816772 165.762192,123.278328 166.284821,122.419838 
z"/>
<path fill="#8AE2B8" opacity="1.000000" stroke="none" 
	d="
M55.327301,71.791275 
	C53.941799,70.851242 52.593323,69.883316 50.788582,69.971863 
	C44.343555,70.288033 37.833942,69.076027 31.107330,70.923279 
	C30.589548,68.856056 31.857523,68.175194 33.794044,68.172287 
	C40.372337,68.162430 46.951031,68.182495 53.528717,68.111923 
	C56.380939,68.081322 56.518215,69.427238 55.327301,71.791275 
z"/>
<path fill="#EBFAF3" opacity="1.000000" stroke="none" 
	d="
M160.134171,155.619080 
	C160.143051,154.015732 160.071335,152.701294 161.774277,152.744705 
	C163.256439,152.782516 162.978577,154.027924 163.015717,154.958542 
	C163.062042,156.118683 163.070557,157.283707 163.022049,158.443542 
	C162.928467,160.681000 162.723495,162.928848 166.124283,162.560776 
	C166.960129,162.470291 167.918411,162.727905 167.944061,163.761948 
	C167.981476,165.269897 166.700714,164.926743 165.787537,165.030716 
	C162.049500,165.456329 159.078796,165.084549 160.094086,160.016205 
	C160.349838,158.739471 160.132660,157.367996 160.134171,155.619080 
z"/>
<path fill="#E6F9F0" opacity="1.000000" stroke="none" 
	d="
M201.976028,155.757721 
	C200.300003,152.826492 201.976791,152.565201 203.884384,152.593842 
	C205.585114,152.619354 206.204727,153.192261 205.447388,155.085098 
	C204.514832,157.415863 204.844452,159.950439 205.315720,162.382721 
	C205.489075,163.277481 206.507416,164.301346 205.113220,164.838135 
	C204.252960,165.169357 203.113312,165.107239 202.190811,164.868011 
	C200.741455,164.492157 201.539566,163.507782 201.675278,162.551636 
	C201.974503,160.443130 201.942856,158.287643 201.976028,155.757721 
z"/>
<path fill="#E6F9F0" opacity="1.000000" stroke="none" 
	d="
M455.749817,152.973175 
	C458.055481,152.694885 460.722656,151.466690 459.257965,155.689423 
	C458.553772,157.719620 459.155457,160.256866 459.406494,162.538010 
	C459.508331,163.463318 460.424438,164.474487 458.953217,164.877136 
	C458.039062,165.127304 456.937897,165.088593 456.020660,164.827866 
	C454.997864,164.537125 455.259735,163.708908 455.582458,162.838470 
	C456.775818,159.620392 455.808746,156.398041 455.749817,152.973175 
z"/>
<path fill="#F6FDF9" opacity="1.000000" stroke="none" 
	d="
M151.743591,157.341919 
	C152.213318,155.554001 149.830597,154.221390 151.594421,152.944489 
	C152.154938,152.538712 153.181015,152.666534 153.980560,152.727356 
	C155.043777,152.808273 155.436752,153.684128 155.023438,154.478470 
	C153.269684,157.848846 156.049240,161.755280 153.789169,164.846069 
	C153.358124,165.435577 150.229721,165.829132 151.237579,162.628464 
	C151.717651,161.103851 151.596100,159.389771 151.743591,157.341919 
z"/>
<path fill="#F6FDF9" opacity="1.000000" stroke="none" 
	d="
M358.481995,160.939941 
	C358.466736,162.568420 360.144257,163.941589 358.328796,164.816513 
	C357.559326,165.187347 356.212921,165.130722 355.498657,164.680969 
	C354.152618,163.833298 355.616943,162.702087 355.615692,161.679153 
	C355.613129,159.551392 355.682251,157.403107 355.404083,155.305405 
	C355.279846,154.368484 354.445618,153.422501 355.721191,152.868881 
	C356.415070,152.567749 357.364868,152.582718 358.124207,152.765961 
	C359.482086,153.093658 359.034454,154.098358 358.881653,155.103485 
	C358.612610,156.873032 358.587067,158.679626 358.481995,160.939941 
z"/>
<path fill="#4FD394" opacity="1.000000" stroke="none" 
	d="
M172.958405,109.275970 
	C175.621597,108.916580 178.068024,109.054100 180.819855,110.036011 
	C181.022476,112.067184 180.062653,113.608337 178.526428,115.222473 
	C175.944702,116.026207 173.778015,116.035797 172.023911,113.389587 
	C172.095154,111.902992 172.430756,110.744743 172.958405,109.275970 
z"/>
<path fill="#C5F1DC" opacity="1.000000" stroke="none" 
	d="
M94.640503,37.038391 
	C94.997009,37.454575 94.980743,37.863438 94.974686,38.579254 
	C90.681679,40.695900 86.378471,42.505585 82.075272,44.315269 
	C85.448250,40.546200 89.873215,38.816147 94.640503,37.038391 
z"/>
<path fill="#9CE7C3" opacity="1.000000" stroke="none" 
	d="
M176.956421,88.666023 
	C179.344177,84.858513 182.776306,86.302490 186.465942,86.949493 
	C187.205811,89.295547 186.905930,90.883987 183.870575,90.211380 
	C181.667236,89.723137 179.317368,89.959488 176.956421,88.666023 
z"/>
<path fill="#3FCF8A" opacity="1.000000" stroke="none" 
	d="
M171.596207,113.313950 
	C173.923431,113.072617 175.941422,113.560326 177.988892,115.170181 
	C177.754318,118.734077 175.839371,118.874184 173.182724,117.903793 
	C170.845535,117.050079 169.718338,115.943695 171.596207,113.313950 
z"/>
<path fill="#4FD394" opacity="1.000000" stroke="none" 
	d="
M214.798553,98.072906 
	C214.020813,100.849312 216.890320,103.008827 216.225281,105.689430 
	C215.966888,106.730965 216.572388,108.408264 215.022125,108.523666 
	C213.141357,108.663673 213.314102,106.856987 213.278427,105.630638 
	C213.211334,103.324272 213.327118,101.012581 213.548737,98.352135 
	C213.968567,98.009621 214.206512,98.018089 214.798553,98.072906 
z"/>
<path fill="#10C36D" opacity="1.000000" stroke="none" 
	d="
M86.582184,118.993378 
	C88.462029,119.119324 90.016968,118.679161 91.534172,120.052582 
	C84.462532,120.052582 77.675278,120.052582 70.888031,120.052582 
	C70.885460,119.699409 70.882889,119.346230 70.880325,118.993057 
	C75.968750,118.993057 81.057175,118.993057 86.582184,118.993378 
z"/>
<path fill="#DDF7EA" opacity="1.000000" stroke="none" 
	d="
M156.600037,123.914032 
	C157.105820,124.007210 157.340744,124.307350 157.785126,124.802505 
	C155.965607,127.833946 154.157486,130.919022 149.495316,132.523880 
	C152.246521,129.141006 154.287842,126.631004 156.600037,123.914032 
z"/>
<path fill="#27C97B" opacity="1.000000" stroke="none" 
	d="
M182.606812,24.957359 
	C183.308746,24.399601 184.080826,23.667196 184.409775,24.366896 
	C185.117966,25.873236 183.670944,26.642355 182.790634,27.504965 
	C182.317230,27.968866 181.452881,28.205040 181.414886,27.251873 
	C181.387558,26.566193 182.049774,25.853027 182.606812,24.957359 
z"/>
<path fill="#C5F1DC" opacity="1.000000" stroke="none" 
	d="
M171.455872,66.183243 
	C172.163116,66.131897 172.866180,66.368492 173.781204,66.789787 
	C172.852798,68.287315 172.063980,67.824883 171.455872,66.183243 
z"/>
<path fill="#9CE7C3" opacity="1.000000" stroke="none" 
	d="
M176.794525,81.997131 
	C176.891357,82.654388 176.783798,83.267960 176.518829,84.327248 
	C176.107758,83.999252 175.854095,83.225548 175.682693,82.147614 
	C176.046768,81.829414 176.321838,81.866096 176.794525,81.997131 
z"/>
<path fill="#8AE2B8" opacity="1.000000" stroke="none" 
	d="
M50.065296,86.426437 
	C50.244923,85.998383 50.415409,85.999054 50.841965,85.992004 
	C50.924202,86.682701 50.750378,87.381104 50.304245,88.325821 
	C50.040009,87.999809 50.048084,87.427490 50.065296,86.426437 
z"/>
<path fill="#8AE2B8" opacity="1.000000" stroke="none" 
	d="
M28.201317,81.316956 
	C28.373287,81.344788 28.359360,81.559074 28.179579,81.853035 
	C28.112579,81.942467 28.114273,81.513161 28.201317,81.316956 
z"/>
<path fill="#C5F1DC" opacity="1.000000" stroke="none" 
	d="
M174.563812,71.758774 
	C174.706741,71.935509 174.581116,72.258301 174.292084,72.785934 
	C174.184204,72.628792 174.239731,72.266815 174.563812,71.758774 
z"/>
<path fill="#01BF64" opacity="1.000000" stroke="none" 
	d="
M264.999939,92.619041 
	C264.726440,97.978897 265.696777,103.003906 264.435364,107.833466 
	C263.850922,107.834763 263.266510,107.836052 262.682098,107.837349 
	C262.682098,102.429642 262.616058,97.020470 262.735504,91.615402 
	C262.760651,90.478897 263.074615,90.485832 264.999939,92.619041 
z"/>
<path fill="#27C97B" opacity="1.000000" stroke="none" 
	d="
M391.910919,98.988083 
	C392.599213,95.688034 390.191345,90.742844 393.442810,90.470154 
	C395.897095,90.264305 394.369080,95.555687 394.673462,98.370392 
	C394.957825,100.999649 394.725464,103.686386 394.693207,106.347504 
	C394.680664,107.384171 394.436371,108.609398 393.309235,108.670738 
	C392.033325,108.740181 391.952759,107.457001 391.938477,106.452629 
	C391.905365,104.124191 391.917267,101.795120 391.910919,98.988083 
z"/>
<path fill="#34CD83" opacity="1.000000" stroke="none" 
	d="
M240.378418,101.887329 
	C239.300186,103.510117 238.273117,103.512901 238.248123,101.750252 
	C238.219223,99.713654 238.705673,97.669739 239.913315,95.634415 
	C240.073349,97.591347 240.233398,99.548271 240.378418,101.887329 
z"/>
<path fill="#1CC674" opacity="1.000000" stroke="none" 
	d="
M305.729004,156.288696 
	C307.340332,158.750763 307.008514,160.627777 304.817505,161.988510 
	C303.567566,162.764786 302.211884,162.462799 301.213165,161.478241 
	C299.940247,160.223358 299.520508,158.635681 300.559540,157.035477 
	C301.807831,155.112930 303.432800,154.416397 305.729004,156.288696 
z"/>
<path fill="#1CC674" opacity="1.000000" stroke="none" 
	d="
M283.050781,159.102814 
	C283.407593,156.533813 284.502991,154.951248 286.890594,155.251450 
	C288.703156,155.479340 289.685394,156.971039 289.751556,158.731201 
	C289.809509,160.272568 289.077301,161.630753 287.479706,162.128967 
	C285.101562,162.870605 283.805969,161.607315 283.050781,159.102814 
z"/>
<path fill="#01BF64" opacity="1.000000" stroke="none" 
	d="
M378.322998,161.085175 
	C378.178040,162.064697 377.607819,162.501617 376.827271,161.876892 
	C376.645660,161.731552 376.459930,161.361969 376.522583,161.180908 
	C376.781769,160.432083 377.369385,160.516556 378.322998,161.085175 
z"/>
</svg>